# xmcd CD database file
#
# Track frame offsets:
#	150
#	13775
#	26390
#	37760
#	52455
#	64532
#	81937
#	99585
#	115260
#	129497
#	140652
#	160427
#	173434
#	191460
#	207885
#	217295
#	230320
#	245507
#	255662
#	269290
#
# Disc length: 3756 seconds
#
# Revision: 0
# Processed by: cddbd v1.4PL0 Copyright (c) Steve Scherf et al.
# Submitted via: CDex 1.40Beta8
#
DISCID=1c0eaa14
DTITLE=Jose Mendes - Selecao de Ouro - 20 Sucessos
DYEAR=1900
DGENRE=Country
TTITLE0=Pára Pedro
TTITLE1=Surpresas da Vida
TTITLE2=Última Lembrança
TTITLE3=Picaço Velho
TTITLE4=Parabéns
TTITLE5=Andarengo
TTITLE6=Brasileiro Meu Irmão
TTITLE7=Vá Embora Tristeza
TTITLE8=Não Aperta Aparício
TTITLE9=Gauderio
TTITLE10=Churrasco
TTITLE11=Palavra Triste
TTITLE12=As coisas do Meu Rincão
TTITLE13=Roubo da Gaita velha
TTITLE14=Baile de Rancho
TTITLE15=Três Companheiros
TTITLE16=Roubei a Fazenda
TTITLE17=Pequena Paisagem de Amor
TTITLE18=Laços da Saudade
TTITLE19=Para Amar Não Tem Distância
EXTD=ID3G: 2
EXTT0=
EXTT1=
EXTT2=
EXTT3=
EXTT4=
EXTT5=
EXTT6=
EXTT7=
EXTT8=
EXTT9=
EXTT10=
EXTT11=
EXTT12=
EXTT13=
EXTT14=
EXTT15=
EXTT16=
EXTT17=
EXTT18=
EXTT19=
PLAYORDER=
